<svg xmlns="http://www.w3.org/2000/svg" width="760" height="601" viewBox="0 0 760 601" role="img" aria-labelledby="t d"><title id="t">Sequential API latency (small, 50 plans)</title><desc id="d">One keep-alive connection, uncompressed. Response size per request in brackets (V1 / V2): payloads differ. Bars are medians; whiskers are 95% bootstrap intervals; &quot;&gt;=&quot; marks a median that includes timed-out samples.</desc><style>svg{font-family:-apple-system,BlinkMacSystemFont,"Segoe UI",Helvetica,Arial,sans-serif}text{font-variant-numeric:tabular-nums}.bg{fill:#fcfcfb;stroke:rgba(11,11,11,0.10)}.t1{fill:#0b0b0b}.t2{fill:#52514e}.t3{fill:#898781}.grid{stroke:#e1e0d9}.axis{stroke:#c3c2b7}.ring{stroke:#fcfcfb}.gap{stroke:#fcfcfb}.lead{stroke:#898781}.wh{stroke:#0b0b0b}.hollow{fill:#fcfcfb;stroke:#898781}.halo{stroke:#fcfcfb;stroke-width:4px;stroke-linejoin:round;paint-order:stroke}.f-v1{fill:#2a78d6}.s-v1{stroke:#2a78d6}.o-v1{fill:#fcfcfb;stroke:#2a78d6}.f-v2{fill:#eb6834}.s-v2{stroke:#eb6834}.o-v2{fill:#fcfcfb;stroke:#eb6834}.f-c0{fill:#1baf7a}.t-c0{fill:#0b0b0b}.f-c1{fill:#eda100}.t-c1{fill:#0b0b0b}.f-c2{fill:#e87ba4}.t-c2{fill:#0b0b0b}.f-c3{fill:#008300}.t-c3{fill:#ffffff}.f-c4{fill:#4a3aa7}.t-c4{fill:#ffffff}.f-c5{fill:#e34948}.t-c5{fill:#0b0b0b}.f-co{fill:#a9a79f}.t-co{fill:#0b0b0b}@media (prefers-color-scheme:dark){.bg{fill:#1a1a19;stroke:rgba(255,255,255,0.10)}.t1{fill:#ffffff}.t2{fill:#c3c2b7}.t3{fill:#898781}.grid{stroke:#2c2c2a}.axis{stroke:#383835}.ring{stroke:#1a1a19}.gap{stroke:#1a1a19}.lead{stroke:#898781}.wh{stroke:#ffffff}.hollow{fill:#1a1a19;stroke:#898781}.halo{stroke:#1a1a19;stroke-width:4px;stroke-linejoin:round;paint-order:stroke}.f-v1{fill:#3987e5}.s-v1{stroke:#3987e5}.o-v1{fill:#1a1a19;stroke:#3987e5}.f-v2{fill:#d95926}.s-v2{stroke:#d95926}.o-v2{fill:#1a1a19;stroke:#d95926}.f-c0{fill:#199e70}.t-c0{fill:#0b0b0b}.f-c1{fill:#c98500}.t-c1{fill:#0b0b0b}.f-c2{fill:#d55181}.t-c2{fill:#0b0b0b}.f-c3{fill:#008300}.t-c3{fill:#ffffff}.f-c4{fill:#9085e9}.t-c4{fill:#0b0b0b}.f-c5{fill:#e66767}.t-c5{fill:#0b0b0b}.f-co{fill:#5f5e59}.t-co{fill:#ffffff}}</style><rect x="0.5" y="0.5" width="759" height="600" rx="8" class="bg"/><text x="20" y="32" class="t1" font-size="15" font-weight="600">Sequential API latency (small, 50 plans)</text><text x="20" y="50" class="t2" font-size="12">One keep-alive connection, uncompressed. Response size per request in brackets (V1 / V2): payloads differ. Bars are</text><text x="20" y="66" class="t2" font-size="12">medians; whiskers are 95% bootstrap intervals; &quot;&gt;=&quot; marks a median that includes timed-out samples.</text><rect x="20" y="81" width="12" height="12" rx="2" class="f-v1"/><text x="40" y="91" class="t2" font-size="12">V1 v1.2.4</text><rect x="112.8" y="81" width="12" height="12" rx="2" class="f-v2"/><text x="132.8" y="91" class="t2" font-size="12">V2 2959bbb</text><line x1="44.5" y1="112" x2="44.5" y2="545" class="grid" stroke-width="1"/><text x="44.5" y="560" class="t2" font-size="11" text-anchor="middle">0.05</text><line x1="117.7" y1="112" x2="117.7" y2="545" class="grid" stroke-width="1"/><text x="117.7" y="560" class="t2" font-size="11" text-anchor="middle">0.1</text><line x1="360.7" y1="112" x2="360.7" y2="545" class="grid" stroke-width="1"/><text x="360.7" y="560" class="t2" font-size="11" text-anchor="middle">1</text><line x1="603.8" y1="112" x2="603.8" y2="545" class="grid" stroke-width="1"/><text x="603.8" y="560" class="t2" font-size="11" text-anchor="middle">10</text><line x1="676.9" y1="112" x2="676.9" y2="545" class="grid" stroke-width="1"/><text x="676.9" y="560" class="t2" font-size="11" text-anchor="middle">20</text><line x1="44.5" y1="112" x2="44.5" y2="545" class="axis" stroke-width="1"/><text x="46.5" y="123" class="t1 halo" font-size="12" font-weight="500">health  (4 B / 137 B)</text><text x="36.5" y="141" class="t2" font-size="11" text-anchor="end">V1</text><path d="M44.5,130H123.6A4,4 0 0 1 127.6,134V140A4,4 0 0 1 123.6,144H44.5Z" class="f-v1"><title>V1 v1.2.4: 0.110 ms</title></path><line x1="121.1" y1="137" x2="136.1" y2="137" class="wh" stroke-width="1.25" opacity="0.75"/><line x1="121.1" y1="133.5" x2="121.1" y2="140.5" class="wh" stroke-width="1.25" opacity="0.75"/><line x1="136.1" y1="133.5" x2="136.1" y2="140.5" class="wh" stroke-width="1.25" opacity="0.75"/><text x="142.1" y="141" class="t1 halo" font-size="11.5">0.110 ms</text><text x="36.5" y="158" class="t2" font-size="11" text-anchor="end">V2</text><path d="M44.5,147H72.8A4,4 0 0 1 76.8,151V157A4,4 0 0 1 72.8,161H44.5Z" class="f-v2"><title>V2 2959bbb: 0.068 ms</title></path><line x1="71.5" y1="154" x2="84.1" y2="154" class="wh" stroke-width="1.25" opacity="0.75"/><line x1="71.5" y1="150.5" x2="71.5" y2="157.5" class="wh" stroke-width="1.25" opacity="0.75"/><line x1="84.1" y1="150.5" x2="84.1" y2="157.5" class="wh" stroke-width="1.25" opacity="0.75"/><text x="90.1" y="158" class="t1 halo" font-size="11.5">0.068 ms</text><text x="46.5" y="186" class="t1 halo" font-size="12" font-weight="500">plans.list  (6.0 KB / 464 KB)</text><text x="36.5" y="204" class="t2" font-size="11" text-anchor="end">V1</text><path d="M44.5,193H542.6A4,4 0 0 1 546.6,197V203A4,4 0 0 1 542.6,207H44.5Z" class="f-v1"><title>V1 v1.2.4: 5.82 ms</title></path><line x1="544.9" y1="200" x2="549.6" y2="200" class="wh" stroke-width="1.25" opacity="0.75"/><line x1="544.9" y1="196.5" x2="544.9" y2="203.5" class="wh" stroke-width="1.25" opacity="0.75"/><line x1="549.6" y1="196.5" x2="549.6" y2="203.5" class="wh" stroke-width="1.25" opacity="0.75"/><text x="555.6" y="204" class="t1 halo" font-size="11.5">5.82 ms</text><text x="36.5" y="221" class="t2" font-size="11" text-anchor="end">V2</text><path d="M44.5,210H347.4A4,4 0 0 1 351.4,214V220A4,4 0 0 1 347.4,224H44.5Z" class="f-v2"><title>V2 2959bbb: 0.916 ms</title></path><line x1="349.2" y1="217" x2="354.1" y2="217" class="wh" stroke-width="1.25" opacity="0.75"/><line x1="349.2" y1="213.5" x2="349.2" y2="220.5" class="wh" stroke-width="1.25" opacity="0.75"/><line x1="354.1" y1="213.5" x2="354.1" y2="220.5" class="wh" stroke-width="1.25" opacity="0.75"/><text x="360.1" y="221" class="t1 halo" font-size="11.5">0.916 ms</text><text x="46.5" y="249" class="t1 halo" font-size="12" font-weight="500">plans.filter  (1.8 KB / 139 KB)</text><text x="36.5" y="267" class="t2" font-size="11" text-anchor="end">V1</text><path d="M44.5,256H544A4,4 0 0 1 548,260V266A4,4 0 0 1 544,270H44.5Z" class="f-v1"><title>V1 v1.2.4: 5.90 ms</title></path><line x1="546.1" y1="263" x2="549.3" y2="263" class="wh" stroke-width="1.25" opacity="0.75"/><line x1="546.1" y1="259.5" x2="546.1" y2="266.5" class="wh" stroke-width="1.25" opacity="0.75"/><line x1="549.3" y1="259.5" x2="549.3" y2="266.5" class="wh" stroke-width="1.25" opacity="0.75"/><text x="555.3" y="267" class="t1 halo" font-size="11.5">5.90 ms</text><text x="36.5" y="284" class="t2" font-size="11" text-anchor="end">V2</text><path d="M44.5,273H310.5A4,4 0 0 1 314.5,277V283A4,4 0 0 1 310.5,287H44.5Z" class="f-v2"><title>V2 2959bbb: 0.645 ms</title></path><line x1="313.2" y1="280" x2="316.9" y2="280" class="wh" stroke-width="1.25" opacity="0.75"/><line x1="313.2" y1="276.5" x2="313.2" y2="283.5" class="wh" stroke-width="1.25" opacity="0.75"/><line x1="316.9" y1="276.5" x2="316.9" y2="283.5" class="wh" stroke-width="1.25" opacity="0.75"/><text x="322.9" y="284" class="t1 halo" font-size="11.5">0.645 ms</text><text x="46.5" y="312" class="t1 halo" font-size="12" font-weight="500">projects.list  (376 B / 1.8 KB)</text><text x="36.5" y="330" class="t2" font-size="11" text-anchor="end">V1</text><path d="M44.5,319H131.4A4,4 0 0 1 135.4,323V329A4,4 0 0 1 131.4,333H44.5Z" class="f-v1"><title>V1 v1.2.4: 0.118 ms</title></path><line x1="131.3" y1="326" x2="140.9" y2="326" class="wh" stroke-width="1.25" opacity="0.75"/><line x1="131.3" y1="322.5" x2="131.3" y2="329.5" class="wh" stroke-width="1.25" opacity="0.75"/><line x1="140.9" y1="322.5" x2="140.9" y2="329.5" class="wh" stroke-width="1.25" opacity="0.75"/><text x="146.9" y="330" class="t1 halo" font-size="11.5">0.118 ms</text><text x="36.5" y="347" class="t2" font-size="11" text-anchor="end">V2</text><path d="M44.5,336H141.1A4,4 0 0 1 145.1,340V346A4,4 0 0 1 141.1,350H44.5Z" class="f-v2"><title>V2 2959bbb: 0.130 ms</title></path><line x1="135.8" y1="343" x2="153.9" y2="343" class="wh" stroke-width="1.25" opacity="0.75"/><line x1="135.8" y1="339.5" x2="135.8" y2="346.5" class="wh" stroke-width="1.25" opacity="0.75"/><line x1="153.9" y1="339.5" x2="153.9" y2="346.5" class="wh" stroke-width="1.25" opacity="0.75"/><text x="159.9" y="347" class="t1 halo" font-size="11.5">0.130 ms</text><text x="46.5" y="375" class="t1 halo" font-size="12" font-weight="500">plans.get  (534 B / 9.4 KB)</text><text x="36.5" y="393" class="t2" font-size="11" text-anchor="end">V1</text><path d="M44.5,382H232.4A4,4 0 0 1 236.4,386V392A4,4 0 0 1 232.4,396H44.5Z" class="f-v1"><title>V1 v1.2.4: 0.308 ms</title></path><line x1="231.8" y1="389" x2="241.5" y2="389" class="wh" stroke-width="1.25" opacity="0.75"/><line x1="231.8" y1="385.5" x2="231.8" y2="392.5" class="wh" stroke-width="1.25" opacity="0.75"/><line x1="241.5" y1="385.5" x2="241.5" y2="392.5" class="wh" stroke-width="1.25" opacity="0.75"/><text x="247.5" y="393" class="t1 halo" font-size="11.5">0.308 ms</text><text x="36.5" y="410" class="t2" font-size="11" text-anchor="end">V2</text><path d="M44.5,399H208.6A4,4 0 0 1 212.6,403V409A4,4 0 0 1 208.6,413H44.5Z" class="f-v2"><title>V2 2959bbb: 0.246 ms</title></path><line x1="211.5" y1="406" x2="214.4" y2="406" class="wh" stroke-width="1.25" opacity="0.75"/><line x1="211.5" y1="402.5" x2="211.5" y2="409.5" class="wh" stroke-width="1.25" opacity="0.75"/><line x1="214.4" y1="402.5" x2="214.4" y2="409.5" class="wh" stroke-width="1.25" opacity="0.75"/><text x="220.4" y="410" class="t1 halo" font-size="11.5">0.246 ms</text><text x="46.5" y="438" class="t1 halo" font-size="12" font-weight="500">jobs.get  (50 B / 447 B)</text><text x="36.5" y="456" class="t2" font-size="11" text-anchor="end">V1</text><path d="M44.5,445H141.7A4,4 0 0 1 145.7,449V455A4,4 0 0 1 141.7,459H44.5Z" class="f-v1"><title>V1 v1.2.4: 0.130 ms</title></path><line x1="140.5" y1="452" x2="150.7" y2="452" class="wh" stroke-width="1.25" opacity="0.75"/><line x1="140.5" y1="448.5" x2="140.5" y2="455.5" class="wh" stroke-width="1.25" opacity="0.75"/><line x1="150.7" y1="448.5" x2="150.7" y2="455.5" class="wh" stroke-width="1.25" opacity="0.75"/><text x="156.7" y="456" class="t1 halo" font-size="11.5">0.130 ms</text><text x="36.5" y="473" class="t2" font-size="11" text-anchor="end">V2</text><path d="M44.5,462H288A4,4 0 0 1 292,466V472A4,4 0 0 1 288,476H44.5Z" class="f-v2"><title>V2 2959bbb: 0.521 ms</title></path><line x1="288.3" y1="469" x2="293.9" y2="469" class="wh" stroke-width="1.25" opacity="0.75"/><line x1="288.3" y1="465.5" x2="288.3" y2="472.5" class="wh" stroke-width="1.25" opacity="0.75"/><line x1="293.9" y1="465.5" x2="293.9" y2="472.5" class="wh" stroke-width="1.25" opacity="0.75"/><text x="299.9" y="473" class="t1 halo" font-size="11.5">0.521 ms</text><text x="46.5" y="501" class="t1 halo" font-size="12" font-weight="500">plans.update  (39 B / 35 B)</text><text x="36.5" y="519" class="t2" font-size="11" text-anchor="end">V1</text><path d="M44.5,508H546.2A4,4 0 0 1 550.2,512V518A4,4 0 0 1 546.2,522H44.5Z" class="f-v1"><title>V1 v1.2.4: 6.02 ms</title></path><line x1="549.3" y1="515" x2="551.7" y2="515" class="wh" stroke-width="1.25" opacity="0.75"/><line x1="549.3" y1="511.5" x2="549.3" y2="518.5" class="wh" stroke-width="1.25" opacity="0.75"/><line x1="551.7" y1="511.5" x2="551.7" y2="518.5" class="wh" stroke-width="1.25" opacity="0.75"/><text x="557.7" y="519" class="t1 halo" font-size="11.5">6.02 ms</text><text x="36.5" y="536" class="t2" font-size="11" text-anchor="end">V2</text><path d="M44.5,525H598.6A4,4 0 0 1 602.6,529V535A4,4 0 0 1 598.6,539H44.5Z" class="f-v2"><title>V2 2959bbb: 9.89 ms</title></path><line x1="600.5" y1="532" x2="604.9" y2="532" class="wh" stroke-width="1.25" opacity="0.75"/><line x1="600.5" y1="528.5" x2="600.5" y2="535.5" class="wh" stroke-width="1.25" opacity="0.75"/><line x1="604.9" y1="528.5" x2="604.9" y2="535.5" class="wh" stroke-width="1.25" opacity="0.75"/><text x="610.9" y="536" class="t1 halo" font-size="11.5">9.89 ms</text><text x="360.7" y="577" class="t2" font-size="11.5" text-anchor="middle">milliseconds (log scale)</text></svg>
