<svg xmlns="http://www.w3.org/2000/svg" width="760" height="664" viewBox="0 0 760 664" role="img" aria-labelledby="t d"><title id="t">CLI wall time per command</title><desc id="d">Bars are medians; whiskers are 95% bootstrap intervals; &quot;&gt;=&quot; marks a median that includes timed-out samples. Dataset in brackets.</desc><style>svg{font-family:-apple-system,BlinkMacSystemFont,"Segoe UI",Helvetica,Arial,sans-serif}text{font-variant-numeric:tabular-nums}.bg{fill:#fcfcfb;stroke:rgba(11,11,11,0.10)}.t1{fill:#0b0b0b}.t2{fill:#52514e}.t3{fill:#898781}.grid{stroke:#e1e0d9}.axis{stroke:#c3c2b7}.ring{stroke:#fcfcfb}.gap{stroke:#fcfcfb}.lead{stroke:#898781}.wh{stroke:#0b0b0b}.hollow{fill:#fcfcfb;stroke:#898781}.halo{stroke:#fcfcfb;stroke-width:4px;stroke-linejoin:round;paint-order:stroke}.f-v1{fill:#2a78d6}.s-v1{stroke:#2a78d6}.o-v1{fill:#fcfcfb;stroke:#2a78d6}.f-v2{fill:#eb6834}.s-v2{stroke:#eb6834}.o-v2{fill:#fcfcfb;stroke:#eb6834}.f-c0{fill:#1baf7a}.t-c0{fill:#0b0b0b}.f-c1{fill:#eda100}.t-c1{fill:#0b0b0b}.f-c2{fill:#e87ba4}.t-c2{fill:#0b0b0b}.f-c3{fill:#008300}.t-c3{fill:#ffffff}.f-c4{fill:#4a3aa7}.t-c4{fill:#ffffff}.f-c5{fill:#e34948}.t-c5{fill:#0b0b0b}.f-co{fill:#a9a79f}.t-co{fill:#0b0b0b}@media (prefers-color-scheme:dark){.bg{fill:#1a1a19;stroke:rgba(255,255,255,0.10)}.t1{fill:#ffffff}.t2{fill:#c3c2b7}.t3{fill:#898781}.grid{stroke:#2c2c2a}.axis{stroke:#383835}.ring{stroke:#1a1a19}.gap{stroke:#1a1a19}.lead{stroke:#898781}.wh{stroke:#ffffff}.hollow{fill:#1a1a19;stroke:#898781}.halo{stroke:#1a1a19;stroke-width:4px;stroke-linejoin:round;paint-order:stroke}.f-v1{fill:#3987e5}.s-v1{stroke:#3987e5}.o-v1{fill:#1a1a19;stroke:#3987e5}.f-v2{fill:#d95926}.s-v2{stroke:#d95926}.o-v2{fill:#1a1a19;stroke:#d95926}.f-c0{fill:#199e70}.t-c0{fill:#0b0b0b}.f-c1{fill:#c98500}.t-c1{fill:#0b0b0b}.f-c2{fill:#d55181}.t-c2{fill:#0b0b0b}.f-c3{fill:#008300}.t-c3{fill:#ffffff}.f-c4{fill:#9085e9}.t-c4{fill:#0b0b0b}.f-c5{fill:#e66767}.t-c5{fill:#0b0b0b}.f-co{fill:#5f5e59}.t-co{fill:#ffffff}}</style><rect x="0.5" y="0.5" width="759" height="663" rx="8" class="bg"/><text x="20" y="32" class="t1" font-size="15" font-weight="600">CLI wall time per command</text><text x="20" y="50" class="t2" font-size="12">Bars are medians; whiskers are 95% bootstrap intervals; &quot;&gt;=&quot; marks a median that includes timed-out samples. Dataset in</text><text x="20" y="66" class="t2" font-size="12">brackets.</text><rect x="20" y="81" width="12" height="12" rx="2" class="f-v1"/><text x="40" y="91" class="t2" font-size="12">V1 v1.2.4</text><rect x="112.8" y="81" width="12" height="12" rx="2" class="f-v2"/><text x="132.8" y="91" class="t2" font-size="12">V2 2959bbb</text><line x1="44.5" y1="112" x2="44.5" y2="608" class="grid" stroke-width="1"/><text x="44.5" y="623" class="t2" font-size="11" text-anchor="middle">5</text><line x1="140.8" y1="112" x2="140.8" y2="608" class="grid" stroke-width="1"/><text x="140.8" y="623" class="t2" font-size="11" text-anchor="middle">10</text><line x1="237" y1="112" x2="237" y2="608" class="grid" stroke-width="1"/><text x="237" y="623" class="t2" font-size="11" text-anchor="middle">20</text><line x1="364.2" y1="112" x2="364.2" y2="608" class="grid" stroke-width="1"/><text x="364.2" y="623" class="t2" font-size="11" text-anchor="middle">50</text><line x1="460.4" y1="112" x2="460.4" y2="608" class="grid" stroke-width="1"/><text x="460.4" y="623" class="t2" font-size="11" text-anchor="middle">100</text><line x1="556.6" y1="112" x2="556.6" y2="608" class="grid" stroke-width="1"/><text x="556.6" y="623" class="t2" font-size="11" text-anchor="middle">200</text><line x1="683.8" y1="112" x2="683.8" y2="608" class="grid" stroke-width="1"/><text x="683.8" y="623" class="t2" font-size="11" text-anchor="middle">500</text><line x1="44.5" y1="112" x2="44.5" y2="608" class="axis" stroke-width="1"/><text x="46.5" y="123" class="t1 halo" font-size="12" font-weight="500">--version (small)</text><text x="36.5" y="141" class="t2" font-size="11" text-anchor="end">V1</text><path d="M44.5,130H535A4,4 0 0 1 539,134V140A4,4 0 0 1 535,144H44.5Z" class="f-v1"><title>V1 v1.2.4: 176 ms</title></path><line x1="533.1" y1="137" x2="559.5" y2="137" class="wh" stroke-width="1.25" opacity="0.75"/><line x1="533.1" y1="133.5" x2="533.1" y2="140.5" class="wh" stroke-width="1.25" opacity="0.75"/><line x1="559.5" y1="133.5" x2="559.5" y2="140.5" class="wh" stroke-width="1.25" opacity="0.75"/><text x="565.5" y="141" class="t1 halo" font-size="11.5">176 ms</text><text x="36.5" y="158" class="t2" font-size="11" text-anchor="end">V2</text><path d="M44.5,147H57.1A4,4 0 0 1 61.1,151V157A4,4 0 0 1 57.1,161H44.5Z" class="f-v2"><title>V2 2959bbb: 5.63 ms</title></path><line x1="44.5" y1="154" x2="84.9" y2="154" class="wh" stroke-width="1.25" opacity="0.75"/><line x1="44.5" y1="150.5" x2="44.5" y2="157.5" class="wh" stroke-width="1.25" opacity="0.75"/><line x1="84.9" y1="150.5" x2="84.9" y2="157.5" class="wh" stroke-width="1.25" opacity="0.75"/><text x="90.9" y="158" class="t1 halo" font-size="11.5">5.63 ms</text><text x="46.5" y="186" class="t1 halo" font-size="12" font-weight="500">--version (large)</text><text x="36.5" y="204" class="t2" font-size="11" text-anchor="end">V1</text><path d="M44.5,193H535.4A4,4 0 0 1 539.4,197V203A4,4 0 0 1 535.4,207H44.5Z" class="f-v1"><title>V1 v1.2.4: 177 ms</title></path><line x1="538.1" y1="200" x2="556.5" y2="200" class="wh" stroke-width="1.25" opacity="0.75"/><line x1="538.1" y1="196.5" x2="538.1" y2="203.5" class="wh" stroke-width="1.25" opacity="0.75"/><line x1="556.5" y1="196.5" x2="556.5" y2="203.5" class="wh" stroke-width="1.25" opacity="0.75"/><text x="562.5" y="204" class="t1 halo" font-size="11.5">177 ms</text><text x="36.5" y="221" class="t2" font-size="11" text-anchor="end">V2</text><path d="M44.5,210H61.7A4,4 0 0 1 65.7,214V220A4,4 0 0 1 61.7,224H44.5Z" class="f-v2"><title>V2 2959bbb: 5.83 ms</title></path><line x1="44.5" y1="217" x2="83" y2="217" class="wh" stroke-width="1.25" opacity="0.75"/><line x1="44.5" y1="213.5" x2="44.5" y2="220.5" class="wh" stroke-width="1.25" opacity="0.75"/><line x1="83" y1="213.5" x2="83" y2="220.5" class="wh" stroke-width="1.25" opacity="0.75"/><text x="89" y="221" class="t1 halo" font-size="11.5">5.83 ms</text><text x="46.5" y="249" class="t1 halo" font-size="12" font-weight="500">plan list (small)</text><text x="36.5" y="267" class="t2" font-size="11" text-anchor="end">V1</text><path d="M44.5,256H530.3A4,4 0 0 1 534.3,260V266A4,4 0 0 1 530.3,270H44.5Z" class="f-v1"><title>V1 v1.2.4: 170 ms</title></path><line x1="534.2" y1="263" x2="548" y2="263" class="wh" stroke-width="1.25" opacity="0.75"/><line x1="534.2" y1="259.5" x2="534.2" y2="266.5" class="wh" stroke-width="1.25" opacity="0.75"/><line x1="548" y1="259.5" x2="548" y2="266.5" class="wh" stroke-width="1.25" opacity="0.75"/><text x="554" y="267" class="t1 halo" font-size="11.5">170 ms</text><text x="36.5" y="284" class="t2" font-size="11" text-anchor="end">V2</text><path d="M44.5,273H104.3A4,4 0 0 1 108.3,277V283A4,4 0 0 1 104.3,287H44.5Z" class="f-v2"><title>V2 2959bbb: 7.92 ms</title></path><line x1="56.7" y1="280" x2="121.7" y2="280" class="wh" stroke-width="1.25" opacity="0.75"/><line x1="56.7" y1="276.5" x2="56.7" y2="283.5" class="wh" stroke-width="1.25" opacity="0.75"/><line x1="121.7" y1="276.5" x2="121.7" y2="283.5" class="wh" stroke-width="1.25" opacity="0.75"/><text x="127.7" y="284" class="t1 halo" font-size="11.5">7.92 ms</text><text x="46.5" y="312" class="t1 halo" font-size="12" font-weight="500">plan list (large)</text><text x="36.5" y="330" class="t2" font-size="11" text-anchor="end">V1</text><path d="M44.5,319H558.5A4,4 0 0 1 562.5,323V329A4,4 0 0 1 558.5,333H44.5Z" class="f-v1"><title>V1 v1.2.4: 209 ms</title></path><line x1="562.1" y1="326" x2="570.4" y2="326" class="wh" stroke-width="1.25" opacity="0.75"/><line x1="562.1" y1="322.5" x2="562.1" y2="329.5" class="wh" stroke-width="1.25" opacity="0.75"/><line x1="570.4" y1="322.5" x2="570.4" y2="329.5" class="wh" stroke-width="1.25" opacity="0.75"/><text x="576.4" y="330" class="t1 halo" font-size="11.5">209 ms</text><text x="36.5" y="347" class="t2" font-size="11" text-anchor="end">V2</text><path d="M44.5,336H210.4A4,4 0 0 1 214.4,340V346A4,4 0 0 1 210.4,350H44.5Z" class="f-v2"><title>V2 2959bbb: 17.0 ms</title></path><line x1="184.1" y1="343" x2="231.5" y2="343" class="wh" stroke-width="1.25" opacity="0.75"/><line x1="184.1" y1="339.5" x2="184.1" y2="346.5" class="wh" stroke-width="1.25" opacity="0.75"/><line x1="231.5" y1="339.5" x2="231.5" y2="346.5" class="wh" stroke-width="1.25" opacity="0.75"/><text x="237.5" y="347" class="t1 halo" font-size="11.5">17.0 ms</text><text x="46.5" y="375" class="t1 halo" font-size="12" font-weight="500">plan list (disk scan) (small)</text><text x="36.5" y="393" class="t2" font-size="11" text-anchor="end">V1</text><path d="M44.5,382H530.9A4,4 0 0 1 534.9,386V392A4,4 0 0 1 530.9,396H44.5Z" class="f-v1"><title>V1 v1.2.4: 171 ms</title></path><line x1="532.6" y1="389" x2="542.9" y2="389" class="wh" stroke-width="1.25" opacity="0.75"/><line x1="532.6" y1="385.5" x2="532.6" y2="392.5" class="wh" stroke-width="1.25" opacity="0.75"/><line x1="542.9" y1="385.5" x2="542.9" y2="392.5" class="wh" stroke-width="1.25" opacity="0.75"/><text x="548.9" y="393" class="t1 halo" font-size="11.5">171 ms</text><text x="36.5" y="410" class="t2" font-size="11" text-anchor="end">V2</text><path d="M44.5,399H144A4,4 0 0 1 148,403V409A4,4 0 0 1 144,413H44.5Z" class="f-v2"><title>V2 2959bbb: 10.5 ms</title></path><line x1="128.6" y1="406" x2="180.9" y2="406" class="wh" stroke-width="1.25" opacity="0.75"/><line x1="128.6" y1="402.5" x2="128.6" y2="409.5" class="wh" stroke-width="1.25" opacity="0.75"/><line x1="180.9" y1="402.5" x2="180.9" y2="409.5" class="wh" stroke-width="1.25" opacity="0.75"/><text x="186.9" y="410" class="t1 halo" font-size="11.5">10.5 ms</text><text x="46.5" y="438" class="t1 halo" font-size="12" font-weight="500">plan list (disk scan) (large)</text><text x="36.5" y="456" class="t2" font-size="11" text-anchor="end">V1</text><path d="M44.5,445H560A4,4 0 0 1 564,449V455A4,4 0 0 1 560,459H44.5Z" class="f-v1"><title>V1 v1.2.4: 211 ms</title></path><line x1="563.4" y1="452" x2="566.9" y2="452" class="wh" stroke-width="1.25" opacity="0.75"/><line x1="563.4" y1="448.5" x2="563.4" y2="455.5" class="wh" stroke-width="1.25" opacity="0.75"/><line x1="566.9" y1="448.5" x2="566.9" y2="455.5" class="wh" stroke-width="1.25" opacity="0.75"/><text x="572.9" y="456" class="t1 halo" font-size="11.5">211 ms</text><text x="36.5" y="473" class="t2" font-size="11" text-anchor="end">V2</text><path d="M44.5,462H487A4,4 0 0 1 491,466V472A4,4 0 0 1 487,476H44.5Z" class="f-v2"><title>V2 2959bbb: 125 ms</title></path><line x1="486.6" y1="469" x2="495.1" y2="469" class="wh" stroke-width="1.25" opacity="0.75"/><line x1="486.6" y1="465.5" x2="486.6" y2="472.5" class="wh" stroke-width="1.25" opacity="0.75"/><line x1="495.1" y1="465.5" x2="495.1" y2="472.5" class="wh" stroke-width="1.25" opacity="0.75"/><text x="501.1" y="473" class="t1 halo" font-size="11.5">125 ms</text><text x="46.5" y="501" class="t1 halo" font-size="12" font-weight="500">plan get (small)</text><text x="36.5" y="519" class="t2" font-size="11" text-anchor="end">V1</text><path d="M44.5,508H537.7A4,4 0 0 1 541.7,512V518A4,4 0 0 1 537.7,522H44.5Z" class="f-v1"><title>V1 v1.2.4: 180 ms</title></path><line x1="537.3" y1="515" x2="556.4" y2="515" class="wh" stroke-width="1.25" opacity="0.75"/><line x1="537.3" y1="511.5" x2="537.3" y2="518.5" class="wh" stroke-width="1.25" opacity="0.75"/><line x1="556.4" y1="511.5" x2="556.4" y2="518.5" class="wh" stroke-width="1.25" opacity="0.75"/><text x="562.4" y="519" class="t1 halo" font-size="11.5">180 ms</text><text x="36.5" y="536" class="t2" font-size="11" text-anchor="end">V2</text><path d="M44.5,525H77.8A4,4 0 0 1 81.8,529V535A4,4 0 0 1 77.8,539H44.5Z" class="f-v2"><title>V2 2959bbb: 6.54 ms</title></path><line x1="44.5" y1="532" x2="106.2" y2="532" class="wh" stroke-width="1.25" opacity="0.75"/><line x1="44.5" y1="528.5" x2="44.5" y2="535.5" class="wh" stroke-width="1.25" opacity="0.75"/><line x1="106.2" y1="528.5" x2="106.2" y2="535.5" class="wh" stroke-width="1.25" opacity="0.75"/><text x="112.2" y="536" class="t1 halo" font-size="11.5">6.54 ms</text><text x="46.5" y="564" class="t1 halo" font-size="12" font-weight="500">plan get (large)</text><text x="36.5" y="582" class="t2" font-size="11" text-anchor="end">V1</text><path d="M44.5,571H539.5A4,4 0 0 1 543.5,575V581A4,4 0 0 1 539.5,585H44.5Z" class="f-v1"><title>V1 v1.2.4: 182 ms</title></path><line x1="541.7" y1="578" x2="556.6" y2="578" class="wh" stroke-width="1.25" opacity="0.75"/><line x1="541.7" y1="574.5" x2="541.7" y2="581.5" class="wh" stroke-width="1.25" opacity="0.75"/><line x1="556.6" y1="574.5" x2="556.6" y2="581.5" class="wh" stroke-width="1.25" opacity="0.75"/><text x="562.6" y="582" class="t1 halo" font-size="11.5">182 ms</text><text x="36.5" y="599" class="t2" font-size="11" text-anchor="end">V2</text><path d="M44.5,588H81.3A4,4 0 0 1 85.3,592V598A4,4 0 0 1 81.3,602H44.5Z" class="f-v2"><title>V2 2959bbb: 6.71 ms</title></path><line x1="44.5" y1="595" x2="111.3" y2="595" class="wh" stroke-width="1.25" opacity="0.75"/><line x1="44.5" y1="591.5" x2="44.5" y2="598.5" class="wh" stroke-width="1.25" opacity="0.75"/><line x1="111.3" y1="591.5" x2="111.3" y2="598.5" class="wh" stroke-width="1.25" opacity="0.75"/><text x="117.3" y="599" class="t1 halo" font-size="11.5">6.71 ms</text><text x="364.2" y="640" class="t2" font-size="11.5" text-anchor="middle">milliseconds (log scale)</text></svg>
