<svg xmlns="http://www.w3.org/2000/svg" width="760" height="617" viewBox="0 0 760 617" role="img" aria-labelledby="t d"><title id="t">Architecture-internal socket traffic per scenario (small, 50 plans)</title><desc id="d">Bytes in both directions until the traffic settled. Architecture-internal sockets, not like for like: V1 is the page and its server (assets included); V2 is the Tauri host (the IPC shim running the real command handlers) and the daemon, no assets or IPC. Log scale. Bars are medians; whiskers are 95% bootstrap intervals; &quot;&gt;=&quot; marks a median that includes timed-out samples.</desc><style>svg{font-family:-apple-system,BlinkMacSystemFont,"Segoe UI",Helvetica,Arial,sans-serif}text{font-variant-numeric:tabular-nums}.bg{fill:#fcfcfb;stroke:rgba(11,11,11,0.10)}.t1{fill:#0b0b0b}.t2{fill:#52514e}.t3{fill:#898781}.grid{stroke:#e1e0d9}.axis{stroke:#c3c2b7}.ring{stroke:#fcfcfb}.gap{stroke:#fcfcfb}.lead{stroke:#898781}.wh{stroke:#0b0b0b}.hollow{fill:#fcfcfb;stroke:#898781}.halo{stroke:#fcfcfb;stroke-width:4px;stroke-linejoin:round;paint-order:stroke}.f-v1{fill:#2a78d6}.s-v1{stroke:#2a78d6}.o-v1{fill:#fcfcfb;stroke:#2a78d6}.f-v2{fill:#eb6834}.s-v2{stroke:#eb6834}.o-v2{fill:#fcfcfb;stroke:#eb6834}.f-c0{fill:#1baf7a}.t-c0{fill:#0b0b0b}.f-c1{fill:#eda100}.t-c1{fill:#0b0b0b}.f-c2{fill:#e87ba4}.t-c2{fill:#0b0b0b}.f-c3{fill:#008300}.t-c3{fill:#ffffff}.f-c4{fill:#4a3aa7}.t-c4{fill:#ffffff}.f-c5{fill:#e34948}.t-c5{fill:#0b0b0b}.f-co{fill:#a9a79f}.t-co{fill:#0b0b0b}@media (prefers-color-scheme:dark){.bg{fill:#1a1a19;stroke:rgba(255,255,255,0.10)}.t1{fill:#ffffff}.t2{fill:#c3c2b7}.t3{fill:#898781}.grid{stroke:#2c2c2a}.axis{stroke:#383835}.ring{stroke:#1a1a19}.gap{stroke:#1a1a19}.lead{stroke:#898781}.wh{stroke:#ffffff}.hollow{fill:#1a1a19;stroke:#898781}.halo{stroke:#1a1a19;stroke-width:4px;stroke-linejoin:round;paint-order:stroke}.f-v1{fill:#3987e5}.s-v1{stroke:#3987e5}.o-v1{fill:#1a1a19;stroke:#3987e5}.f-v2{fill:#d95926}.s-v2{stroke:#d95926}.o-v2{fill:#1a1a19;stroke:#d95926}.f-c0{fill:#199e70}.t-c0{fill:#0b0b0b}.f-c1{fill:#c98500}.t-c1{fill:#0b0b0b}.f-c2{fill:#d55181}.t-c2{fill:#0b0b0b}.f-c3{fill:#008300}.t-c3{fill:#ffffff}.f-c4{fill:#9085e9}.t-c4{fill:#0b0b0b}.f-c5{fill:#e66767}.t-c5{fill:#0b0b0b}.f-co{fill:#5f5e59}.t-co{fill:#ffffff}}</style><rect x="0.5" y="0.5" width="759" height="616" rx="8" class="bg"/><text x="20" y="32" class="t1" font-size="15" font-weight="600">Architecture-internal socket traffic per scenario (small, 50 plans)</text><text x="20" y="50" class="t2" font-size="12">Bytes in both directions until the traffic settled. Architecture-internal sockets, not like for like: V1 is the page and its server</text><text x="20" y="66" class="t2" font-size="12">(assets included); V2 is the Tauri host (the IPC shim running the real command handlers) and the daemon, no assets or IPC.</text><text x="20" y="82" class="t2" font-size="12">Log scale. Bars are medians; whiskers are 95% bootstrap intervals; &quot;&gt;=&quot; marks a median that includes timed-out samples.</text><rect x="20" y="97" width="12" height="12" rx="2" class="f-v1"/><text x="40" y="107" class="t2" font-size="12">V1 v1.2.4</text><rect x="112.8" y="97" width="12" height="12" rx="2" class="f-v2"/><text x="132.8" y="107" class="t2" font-size="12">V2 2959bbb</text><line x1="44.5" y1="128" x2="44.5" y2="561" class="grid" stroke-width="1"/><text x="44.5" y="576" class="t2" font-size="11" text-anchor="middle">0.002</text><line x1="154.7" y1="128" x2="154.7" y2="561" class="grid" stroke-width="1"/><text x="154.7" y="576" class="t2" font-size="11" text-anchor="middle">0.01</text><line x1="312.3" y1="128" x2="312.3" y2="561" class="grid" stroke-width="1"/><text x="312.3" y="576" class="t2" font-size="11" text-anchor="middle">0.1</text><line x1="469.8" y1="128" x2="469.8" y2="561" class="grid" stroke-width="1"/><text x="469.8" y="576" class="t2" font-size="11" text-anchor="middle">1</text><line x1="627.4" y1="128" x2="627.4" y2="561" class="grid" stroke-width="1"/><text x="627.4" y="576" class="t2" font-size="11" text-anchor="middle">10</text><line x1="674.8" y1="128" x2="674.8" y2="561" class="grid" stroke-width="1"/><text x="674.8" y="576" class="t2" font-size="11" text-anchor="middle">20</text><line x1="44.5" y1="128" x2="44.5" y2="561" class="axis" stroke-width="1"/><text x="46.5" y="139" class="t1 halo" font-size="12" font-weight="500">cold-load</text><text x="36.5" y="157" class="t2" font-size="11" text-anchor="end">V1</text><path d="M44.5,146H640.5A4,4 0 0 1 644.5,150V156A4,4 0 0 1 640.5,160H44.5Z" class="f-v1"><title>V1 v1.2.4: 12.83 MB</title></path><text x="650.5" y="157" class="t1 halo" font-size="11.5">12.83 MB</text><text x="36.5" y="174" class="t2" font-size="11" text-anchor="end">V2</text><path d="M44.5,163H478.1A4,4 0 0 1 482.1,167V173A4,4 0 0 1 478.1,177H44.5Z" class="f-v2"><title>V2 2959bbb: 1.20 MB</title></path><text x="488.1" y="174" class="t1 halo" font-size="11.5">1.20 MB</text><text x="46.5" y="202" class="t1 halo" font-size="12" font-weight="500">nav:jobs</text><text x="36.5" y="220" class="t2" font-size="11" text-anchor="end">V1</text><path d="M44.5,209H479.9A4,4 0 0 1 483.9,213V219A4,4 0 0 1 479.9,223H44.5Z" class="f-v1"><title>V1 v1.2.4: 1.23 MB</title></path><text x="489.9" y="220" class="t1 halo" font-size="11.5">1.23 MB</text><text x="36.5" y="237" class="t2" font-size="11" text-anchor="end">V2</text><path d="M44.5,226H182.8A4,4 0 0 1 186.8,230V236A4,4 0 0 1 182.8,240H44.5Z" class="f-v2"><title>V2 2959bbb: 0.016 MB</title></path><text x="192.8" y="237" class="t1 halo" font-size="11.5">0.016 MB</text><text x="46.5" y="265" class="t1 halo" font-size="12" font-weight="500">nav:review</text><text x="36.5" y="283" class="t2" font-size="11" text-anchor="end">V1</text><path d="M44.5,272H205.7A4,4 0 0 1 209.7,276V282A4,4 0 0 1 205.7,286H44.5Z" class="f-v1"><title>V1 v1.2.4: 0.022 MB</title></path><text x="215.7" y="283" class="t1 halo" font-size="11.5">0.022 MB</text><text x="36.5" y="300" class="t2" font-size="11" text-anchor="end">V2</text><path d="M44.5,289H297A4,4 0 0 1 301,293V299A4,4 0 0 1 297,303H44.5Z" class="f-v2"><title>V2 2959bbb: 0.085 MB</title></path><text x="307" y="300" class="t1 halo" font-size="11.5">0.085 MB</text><text x="46.5" y="328" class="t1 halo" font-size="12" font-weight="500">nav:dashboard</text><text x="36.5" y="346" class="t2" font-size="11" text-anchor="end">V1</text><path d="M44.5,335H211.9A4,4 0 0 1 215.9,339V345A4,4 0 0 1 211.9,349H44.5Z" class="f-v1"><title>V1 v1.2.4: 0.024 MB</title></path><text x="221.9" y="346" class="t1 halo" font-size="11.5">0.024 MB</text><text x="36.5" y="363" class="t2" font-size="11" text-anchor="end">V2</text><path d="M44.5,352H90.6A4,4 0 0 1 94.6,356V362A4,4 0 0 1 90.6,366H44.5Z" class="f-v2"><title>V2 2959bbb: 4.2 KB</title></path><text x="100.6" y="363" class="t1 halo" font-size="11.5">4.2 KB</text><text x="46.5" y="391" class="t1 halo" font-size="12" font-weight="500">nav:plans</text><text x="36.5" y="409" class="t2" font-size="11" text-anchor="end">V1</text><path d="M44.5,398H226.9A4,4 0 0 1 230.9,402V408A4,4 0 0 1 226.9,412H44.5Z" class="f-v1"><title>V1 v1.2.4: 0.030 MB</title></path><text x="236.9" y="409" class="t1 halo" font-size="11.5">0.030 MB</text><text x="36.5" y="426" class="t2" font-size="11" text-anchor="end">V2</text><path d="M44.5,415H298.6A4,4 0 0 1 302.6,419V425A4,4 0 0 1 298.6,429H44.5Z" class="f-v2"><title>V2 2959bbb: 0.087 MB</title></path><text x="308.6" y="426" class="t1 halo" font-size="11.5">0.087 MB</text><text x="46.5" y="454" class="t1 halo" font-size="12" font-weight="500">push</text><text x="36.5" y="472" class="t2" font-size="11" text-anchor="end">V1</text><path d="M44.5,461H118A4,4 0 0 1 122,465V471A4,4 0 0 1 118,475H44.5Z" class="f-v1"><title>V1 v1.2.4: 6.2 KB</title></path><text x="128" y="472" class="t1 halo" font-size="11.5">6.2 KB</text><text x="36.5" y="489" class="t2" font-size="11" text-anchor="end">V2</text><path d="M44.5,478H418.9A4,4 0 0 1 422.9,482V488A4,4 0 0 1 418.9,492H44.5Z" class="f-v2"><title>V2 2959bbb: 0.504 MB</title></path><text x="428.9" y="489" class="t1 halo" font-size="11.5">0.504 MB</text><text x="46.5" y="517" class="t1 halo" font-size="12" font-weight="500">session</text><text x="36.5" y="535" class="t2" font-size="11" text-anchor="end">V1</text><path d="M44.5,524H647.2A4,4 0 0 1 651.2,528V534A4,4 0 0 1 647.2,538H44.5Z" class="f-v1"><title>V1 v1.2.4: 14.15 MB</title></path><text x="657.2" y="535" class="t1 halo" font-size="11.5">14.15 MB</text><text x="36.5" y="552" class="t2" font-size="11" text-anchor="end">V2</text><path d="M44.5,541H525.1A4,4 0 0 1 529.1,545V551A4,4 0 0 1 525.1,555H44.5Z" class="f-v2"><title>V2 2959bbb: 2.38 MB</title></path><text x="535.1" y="552" class="t1 halo" font-size="11.5">2.38 MB</text><text x="359.7" y="593" class="t2" font-size="11.5" text-anchor="middle">MB (10^6 bytes) (log scale)</text></svg>
