<svg xmlns="http://www.w3.org/2000/svg" width="760" height="220" viewBox="0 0 760 220" role="img" aria-labelledby="t d"><title id="t">What is inside: frontend/all-js</title><desc id="d">Apparent bytes per component group; segments are labelled where they fit, exact values are in the table below.</desc><style>svg{font-family:-apple-system,BlinkMacSystemFont,"Segoe UI",Helvetica,Arial,sans-serif}text{font-variant-numeric:tabular-nums}.bg{fill:#fcfcfb;stroke:rgba(11,11,11,0.10)}.t1{fill:#0b0b0b}.t2{fill:#52514e}.t3{fill:#898781}.grid{stroke:#e1e0d9}.axis{stroke:#c3c2b7}.ring{stroke:#fcfcfb}.gap{stroke:#fcfcfb}.lead{stroke:#898781}.wh{stroke:#0b0b0b}.hollow{fill:#fcfcfb;stroke:#898781}.halo{stroke:#fcfcfb;stroke-width:4px;stroke-linejoin:round;paint-order:stroke}.f-v1{fill:#2a78d6}.s-v1{stroke:#2a78d6}.o-v1{fill:#fcfcfb;stroke:#2a78d6}.f-v2{fill:#eb6834}.s-v2{stroke:#eb6834}.o-v2{fill:#fcfcfb;stroke:#eb6834}.f-c0{fill:#1baf7a}.t-c0{fill:#0b0b0b}.f-c1{fill:#eda100}.t-c1{fill:#0b0b0b}.f-c2{fill:#e87ba4}.t-c2{fill:#0b0b0b}.f-c3{fill:#008300}.t-c3{fill:#ffffff}.f-c4{fill:#4a3aa7}.t-c4{fill:#ffffff}.f-c5{fill:#e34948}.t-c5{fill:#0b0b0b}.f-co{fill:#a9a79f}.t-co{fill:#0b0b0b}@media (prefers-color-scheme:dark){.bg{fill:#1a1a19;stroke:rgba(255,255,255,0.10)}.t1{fill:#ffffff}.t2{fill:#c3c2b7}.t3{fill:#898781}.grid{stroke:#2c2c2a}.axis{stroke:#383835}.ring{stroke:#1a1a19}.gap{stroke:#1a1a19}.lead{stroke:#898781}.wh{stroke:#ffffff}.hollow{fill:#1a1a19;stroke:#898781}.halo{stroke:#1a1a19;stroke-width:4px;stroke-linejoin:round;paint-order:stroke}.f-v1{fill:#3987e5}.s-v1{stroke:#3987e5}.o-v1{fill:#1a1a19;stroke:#3987e5}.f-v2{fill:#d95926}.s-v2{stroke:#d95926}.o-v2{fill:#1a1a19;stroke:#d95926}.f-c0{fill:#199e70}.t-c0{fill:#0b0b0b}.f-c1{fill:#c98500}.t-c1{fill:#0b0b0b}.f-c2{fill:#d55181}.t-c2{fill:#0b0b0b}.f-c3{fill:#008300}.t-c3{fill:#ffffff}.f-c4{fill:#9085e9}.t-c4{fill:#0b0b0b}.f-c5{fill:#e66767}.t-c5{fill:#0b0b0b}.f-co{fill:#5f5e59}.t-co{fill:#ffffff}}</style><rect x="0.5" y="0.5" width="759" height="219" rx="8" class="bg"/><text x="20" y="32" class="t1" font-size="15" font-weight="600">What is inside: frontend/all-js</text><text x="20" y="50" class="t2" font-size="12">Apparent bytes per component group; segments are labelled where they fit, exact values are in the table below.</text><rect x="20" y="65" width="12" height="12" rx="2" class="f-c0"/><text x="40" y="75" class="t2" font-size="12">app</text><rect x="79.6" y="65" width="12" height="12" rx="2" class="f-c1"/><text x="99.6" y="75" class="t2" font-size="12">framework</text><rect x="178.1" y="65" width="12" height="12" rx="2" class="f-c2"/><text x="198.1" y="75" class="t2" font-size="12">webviewer</text><line x1="105.8" y1="94" x2="105.8" y2="164" class="grid" stroke-width="1"/><text x="105.8" y="179" class="t2" font-size="11" text-anchor="middle">0</text><line x1="219" y1="94" x2="219" y2="164" class="grid" stroke-width="1"/><text x="219" y="179" class="t2" font-size="11" text-anchor="middle">5</text><line x1="332.2" y1="94" x2="332.2" y2="164" class="grid" stroke-width="1"/><text x="332.2" y="179" class="t2" font-size="11" text-anchor="middle">10</text><line x1="445.4" y1="94" x2="445.4" y2="164" class="grid" stroke-width="1"/><text x="445.4" y="179" class="t2" font-size="11" text-anchor="middle">15</text><line x1="558.7" y1="94" x2="558.7" y2="164" class="grid" stroke-width="1"/><text x="558.7" y="179" class="t2" font-size="11" text-anchor="middle">20</text><line x1="671.9" y1="94" x2="671.9" y2="164" class="grid" stroke-width="1"/><text x="671.9" y="179" class="t2" font-size="11" text-anchor="middle">25</text><line x1="105.8" y1="94" x2="105.8" y2="164" class="axis" stroke-width="1"/><text x="95.8" y="113" class="t1" font-size="12" text-anchor="end" font-weight="600">V1 v1.2.4</text><rect x="105.8" y="98" width="198.1" height="22" class="f-c0"><title>V1 v1.2.4, app: 8.75 MB</title></rect><text x="204.8" y="113" class="t-c0" font-size="11" text-anchor="middle">8.75 MB</text><line x1="303.9" y1="97.5" x2="303.9" y2="120.5" class="gap" stroke-width="2"/><rect x="303.9" y="98" width="263.2" height="22" class="f-c1"><title>V1 v1.2.4, framework: 11.62 MB</title></rect><text x="435.5" y="113" class="t-c1" font-size="11" text-anchor="middle">11.62 MB</text><line x1="567.1" y1="97.5" x2="567.1" y2="120.5" class="gap" stroke-width="2"/><path d="M567.1,98H569.3A2.3,2.3 0 0 1 571.6,100.3V117.7A2.3,2.3 0 0 1 569.3,120H567.1Z" class="f-c2"><title>V1 v1.2.4, webviewer: 0.199 MB</title></path><text x="579.6" y="113" class="t1 halo" font-size="11.5" font-weight="600">20.57 MB</text><text x="95.8" y="149" class="t1" font-size="12" text-anchor="end" font-weight="600">V2 2959bbb</text><rect x="105.8" y="134" width="232.8" height="22" class="f-c0"><title>V2 2959bbb, app: 10.28 MB</title></rect><text x="222.2" y="149" class="t-c0" font-size="11" text-anchor="middle">10.28 MB</text><line x1="338.6" y1="133.5" x2="338.6" y2="156.5" class="gap" stroke-width="2"/><path d="M338.6,134H340.8A2.3,2.3 0 0 1 343.1,136.3V153.7A2.3,2.3 0 0 1 340.8,156H338.6Z" class="f-c2"><title>V2 2959bbb, webviewer: 0.201 MB</title></path><text x="351.1" y="149" class="t1 halo" font-size="11.5" font-weight="600">10.48 MB</text><text x="388.8" y="196" class="t2" font-size="11.5" text-anchor="middle">MB (10^6 bytes)</text></svg>
