<svg xmlns="http://www.w3.org/2000/svg" width="760" height="220" viewBox="0 0 760 220" role="img" aria-labelledby="t d"><title id="t">What is inside: installed-app</title><desc id="d">Apparent bytes per component group; segments are labelled where they fit, exact values are in the table below.</desc><style>svg{font-family:-apple-system,BlinkMacSystemFont,"Segoe UI",Helvetica,Arial,sans-serif}text{font-variant-numeric:tabular-nums}.bg{fill:#fcfcfb;stroke:rgba(11,11,11,0.10)}.t1{fill:#0b0b0b}.t2{fill:#52514e}.t3{fill:#898781}.grid{stroke:#e1e0d9}.axis{stroke:#c3c2b7}.ring{stroke:#fcfcfb}.gap{stroke:#fcfcfb}.lead{stroke:#898781}.wh{stroke:#0b0b0b}.hollow{fill:#fcfcfb;stroke:#898781}.halo{stroke:#fcfcfb;stroke-width:4px;stroke-linejoin:round;paint-order:stroke}.f-v1{fill:#2a78d6}.s-v1{stroke:#2a78d6}.o-v1{fill:#fcfcfb;stroke:#2a78d6}.f-v2{fill:#eb6834}.s-v2{stroke:#eb6834}.o-v2{fill:#fcfcfb;stroke:#eb6834}.f-c0{fill:#1baf7a}.t-c0{fill:#0b0b0b}.f-c1{fill:#eda100}.t-c1{fill:#0b0b0b}.f-c2{fill:#e87ba4}.t-c2{fill:#0b0b0b}.f-c3{fill:#008300}.t-c3{fill:#ffffff}.f-c4{fill:#4a3aa7}.t-c4{fill:#ffffff}.f-c5{fill:#e34948}.t-c5{fill:#0b0b0b}.f-co{fill:#a9a79f}.t-co{fill:#0b0b0b}@media (prefers-color-scheme:dark){.bg{fill:#1a1a19;stroke:rgba(255,255,255,0.10)}.t1{fill:#ffffff}.t2{fill:#c3c2b7}.t3{fill:#898781}.grid{stroke:#2c2c2a}.axis{stroke:#383835}.ring{stroke:#1a1a19}.gap{stroke:#1a1a19}.lead{stroke:#898781}.wh{stroke:#ffffff}.hollow{fill:#1a1a19;stroke:#898781}.halo{stroke:#1a1a19;stroke-width:4px;stroke-linejoin:round;paint-order:stroke}.f-v1{fill:#3987e5}.s-v1{stroke:#3987e5}.o-v1{fill:#1a1a19;stroke:#3987e5}.f-v2{fill:#d95926}.s-v2{stroke:#d95926}.o-v2{fill:#1a1a19;stroke:#d95926}.f-c0{fill:#199e70}.t-c0{fill:#0b0b0b}.f-c1{fill:#c98500}.t-c1{fill:#0b0b0b}.f-c2{fill:#d55181}.t-c2{fill:#0b0b0b}.f-c3{fill:#008300}.t-c3{fill:#ffffff}.f-c4{fill:#9085e9}.t-c4{fill:#0b0b0b}.f-c5{fill:#e66767}.t-c5{fill:#0b0b0b}.f-co{fill:#5f5e59}.t-co{fill:#ffffff}}</style><rect x="0.5" y="0.5" width="759" height="219" rx="8" class="bg"/><text x="20" y="32" class="t1" font-size="15" font-weight="600">What is inside: installed-app</text><text x="20" y="50" class="t2" font-size="12">Apparent bytes per component group; segments are labelled where they fit, exact values are in the table below.</text><rect x="20" y="65" width="12" height="12" rx="2" class="f-c0"/><text x="40" y="75" class="t2" font-size="12">bundled toolchains</text><rect x="166.1" y="65" width="12" height="12" rx="2" class="f-c1"/><text x="186.1" y="75" class="t2" font-size="12">agent sidecar</text><rect x="281.9" y="65" width="12" height="12" rx="2" class="f-c2"/><text x="301.9" y="75" class="t2" font-size="12">core app</text><rect x="370.3" y="65" width="12" height="12" rx="2" class="f-c3"/><text x="390.3" y="75" class="t2" font-size="12">updater</text><rect x="452.2" y="65" width="12" height="12" rx="2" class="f-co"/><text x="472.2" y="75" class="t2" font-size="12">other</text><line x1="105.8" y1="94" x2="105.8" y2="164" class="grid" stroke-width="1"/><text x="105.8" y="179" class="t2" font-size="11" text-anchor="middle">0</text><line x1="216.8" y1="94" x2="216.8" y2="164" class="grid" stroke-width="1"/><text x="216.8" y="179" class="t2" font-size="11" text-anchor="middle">250</text><line x1="327.8" y1="94" x2="327.8" y2="164" class="grid" stroke-width="1"/><text x="327.8" y="179" class="t2" font-size="11" text-anchor="middle">500</text><line x1="438.9" y1="94" x2="438.9" y2="164" class="grid" stroke-width="1"/><text x="438.9" y="179" class="t2" font-size="11" text-anchor="middle">750</text><line x1="549.9" y1="94" x2="549.9" y2="164" class="grid" stroke-width="1"/><text x="549.9" y="179" class="t2" font-size="11" text-anchor="middle">1,000</text><line x1="661" y1="94" x2="661" y2="164" class="grid" stroke-width="1"/><text x="661" y="179" class="t2" font-size="11" text-anchor="middle">1,250</text><line x1="105.8" y1="94" x2="105.8" y2="164" class="axis" stroke-width="1"/><text x="95.8" y="113" class="t1" font-size="12" text-anchor="end" font-weight="600">V1 v1.2.4</text><rect x="105.8" y="98" width="376.4" height="22" class="f-c0"><title>V1 v1.2.4, bundled toolchains: 847.5 MB</title></rect><text x="294" y="113" class="t-c0" font-size="11" text-anchor="middle">847.5 MB</text><line x1="482.2" y1="97.5" x2="482.2" y2="120.5" class="gap" stroke-width="2"/><rect x="482.2" y="98" width="61.7" height="22" class="f-c1"><title>V1 v1.2.4, agent sidecar: 138.8 MB</title></rect><line x1="543.8" y1="97.5" x2="543.8" y2="120.5" class="gap" stroke-width="2"/><rect x="543.8" y="98" width="76.3" height="22" class="f-c2"><title>V1 v1.2.4, core app: 171.9 MB</title></rect><text x="582" y="113" class="t-c2" font-size="11" text-anchor="middle">171.9 MB</text><line x1="620.2" y1="97.5" x2="620.2" y2="120.5" class="gap" stroke-width="2"/><rect x="620.2" y="98" width="3.3" height="22" class="f-c3"><title>V1 v1.2.4, updater: 7.53 MB</title></rect><line x1="623.5" y1="97.5" x2="623.5" y2="120.5" class="gap" stroke-width="2"/><path d="M623.5,98H624A0.5,0.5 0 0 1 624.5,98.5V119.5A0.5,0.5 0 0 1 624,120H623.5Z" class="f-co"><title>V1 v1.2.4, other: 2.18 MB</title></path><text x="632.5" y="113" class="t1 halo" font-size="11.5" font-weight="600">1,167.9 MB</text><text x="95.8" y="149" class="t1" font-size="12" text-anchor="end" font-weight="600">V2 2959bbb</text><rect x="105.8" y="134" width="64.2" height="22" class="f-c1"><title>V2 2959bbb, agent sidecar: 144.5 MB</title></rect><text x="137.9" y="149" class="t-c1" font-size="11" text-anchor="middle">144.5 MB</text><line x1="169.9" y1="133.5" x2="169.9" y2="156.5" class="gap" stroke-width="2"/><rect x="169.9" y="134" width="30.4" height="22" class="f-c2"><title>V2 2959bbb, core app: 68.43 MB</title></rect><line x1="200.3" y1="133.5" x2="200.3" y2="156.5" class="gap" stroke-width="2"/><path d="M200.3,134H200.8A0.5,0.5 0 0 1 201.3,134.5V155.5A0.5,0.5 0 0 1 200.8,156H200.3Z" class="f-co"><title>V2 2959bbb, other: 0.067 MB</title></path><text x="208.4" y="149" class="t1 halo" font-size="11.5" font-weight="600">213.0 MB</text><text x="383.4" y="196" class="t2" font-size="11.5" text-anchor="middle">MB (10^6 bytes)</text></svg>
