<svg xmlns="http://www.w3.org/2000/svg" width="760" height="412" viewBox="0 0 760 412" role="img" aria-labelledby="t d"><title id="t">Navigation under background API load (small, 50 plans)</title><desc id="d">Plan list offered at the same fixed rate to both apps (open loop) plus one plan update every 500 ms while navigating. Bars are medians; whiskers are 95% bootstrap intervals; &quot;&gt;=&quot; marks a median that includes timed-out samples.</desc><style>svg{font-family:-apple-system,BlinkMacSystemFont,"Segoe UI",Helvetica,Arial,sans-serif}text{font-variant-numeric:tabular-nums}.bg{fill:#fcfcfb;stroke:rgba(11,11,11,0.10)}.t1{fill:#0b0b0b}.t2{fill:#52514e}.t3{fill:#898781}.grid{stroke:#e1e0d9}.axis{stroke:#c3c2b7}.ring{stroke:#fcfcfb}.gap{stroke:#fcfcfb}.lead{stroke:#898781}.wh{stroke:#0b0b0b}.hollow{fill:#fcfcfb;stroke:#898781}.halo{stroke:#fcfcfb;stroke-width:4px;stroke-linejoin:round;paint-order:stroke}.f-v1{fill:#2a78d6}.s-v1{stroke:#2a78d6}.o-v1{fill:#fcfcfb;stroke:#2a78d6}.f-v2{fill:#eb6834}.s-v2{stroke:#eb6834}.o-v2{fill:#fcfcfb;stroke:#eb6834}.f-c0{fill:#1baf7a}.t-c0{fill:#0b0b0b}.f-c1{fill:#eda100}.t-c1{fill:#0b0b0b}.f-c2{fill:#e87ba4}.t-c2{fill:#0b0b0b}.f-c3{fill:#008300}.t-c3{fill:#ffffff}.f-c4{fill:#4a3aa7}.t-c4{fill:#ffffff}.f-c5{fill:#e34948}.t-c5{fill:#0b0b0b}.f-co{fill:#a9a79f}.t-co{fill:#0b0b0b}@media (prefers-color-scheme:dark){.bg{fill:#1a1a19;stroke:rgba(255,255,255,0.10)}.t1{fill:#ffffff}.t2{fill:#c3c2b7}.t3{fill:#898781}.grid{stroke:#2c2c2a}.axis{stroke:#383835}.ring{stroke:#1a1a19}.gap{stroke:#1a1a19}.lead{stroke:#898781}.wh{stroke:#ffffff}.hollow{fill:#1a1a19;stroke:#898781}.halo{stroke:#1a1a19;stroke-width:4px;stroke-linejoin:round;paint-order:stroke}.f-v1{fill:#3987e5}.s-v1{stroke:#3987e5}.o-v1{fill:#1a1a19;stroke:#3987e5}.f-v2{fill:#d95926}.s-v2{stroke:#d95926}.o-v2{fill:#1a1a19;stroke:#d95926}.f-c0{fill:#199e70}.t-c0{fill:#0b0b0b}.f-c1{fill:#c98500}.t-c1{fill:#0b0b0b}.f-c2{fill:#d55181}.t-c2{fill:#0b0b0b}.f-c3{fill:#008300}.t-c3{fill:#ffffff}.f-c4{fill:#9085e9}.t-c4{fill:#0b0b0b}.f-c5{fill:#e66767}.t-c5{fill:#0b0b0b}.f-co{fill:#5f5e59}.t-co{fill:#ffffff}}</style><rect x="0.5" y="0.5" width="759" height="411" rx="8" class="bg"/><text x="20" y="32" class="t1" font-size="15" font-weight="600">Navigation under background API load (small, 50 plans)</text><text x="20" y="50" class="t2" font-size="12">Plan list offered at the same fixed rate to both apps (open loop) plus one plan update every 500 ms while navigating. Bars are</text><text x="20" y="66" class="t2" font-size="12">medians; whiskers are 95% bootstrap intervals; &quot;&gt;=&quot; marks a median that includes timed-out samples.</text><rect x="20" y="81" width="12" height="12" rx="2" class="f-v1"/><text x="40" y="91" class="t2" font-size="12">V1 v1.2.4</text><rect x="112.8" y="81" width="12" height="12" rx="2" class="f-v2"/><text x="132.8" y="91" class="t2" font-size="12">V2 2959bbb</text><line x1="44.5" y1="112" x2="44.5" y2="356" class="grid" stroke-width="1"/><text x="44.5" y="371" class="t2" font-size="11" text-anchor="middle">2</text><line x1="150.6" y1="112" x2="150.6" y2="356" class="grid" stroke-width="1"/><text x="150.6" y="371" class="t2" font-size="11" text-anchor="middle">5</text><line x1="230.9" y1="112" x2="230.9" y2="356" class="grid" stroke-width="1"/><text x="230.9" y="371" class="t2" font-size="11" text-anchor="middle">10</text><line x1="311.1" y1="112" x2="311.1" y2="356" class="grid" stroke-width="1"/><text x="311.1" y="371" class="t2" font-size="11" text-anchor="middle">20</text><line x1="417.2" y1="112" x2="417.2" y2="356" class="grid" stroke-width="1"/><text x="417.2" y="371" class="t2" font-size="11" text-anchor="middle">50</text><line x1="497.5" y1="112" x2="497.5" y2="356" class="grid" stroke-width="1"/><text x="497.5" y="371" class="t2" font-size="11" text-anchor="middle">100</text><line x1="577.7" y1="112" x2="577.7" y2="356" class="grid" stroke-width="1"/><text x="577.7" y="371" class="t2" font-size="11" text-anchor="middle">200</text><line x1="683.8" y1="112" x2="683.8" y2="356" class="grid" stroke-width="1"/><text x="683.8" y="371" class="t2" font-size="11" text-anchor="middle">500</text><line x1="44.5" y1="112" x2="44.5" y2="356" class="axis" stroke-width="1"/><text x="46.5" y="123" class="t1 halo" font-size="12" font-weight="500">jobs, navigation, revisit</text><text x="36.5" y="141" class="t2" font-size="11" text-anchor="end">V1</text><path d="M44.5,130H618.8A4,4 0 0 1 622.8,134V140A4,4 0 0 1 618.8,144H44.5Z" class="f-v1"><title>V1 v1.2.4: 295 ms</title></path><text x="628.8" y="141" class="t1 halo" font-size="11.5">295 ms</text><text x="36.5" y="158" class="t2" font-size="11" text-anchor="end">V2</text><path d="M44.5,147H332.5A4,4 0 0 1 336.5,151V157A4,4 0 0 1 332.5,161H44.5Z" class="f-v2"><title>V2 2959bbb: 24.9 ms</title></path><text x="342.5" y="158" class="t1 halo" font-size="11.5">24.9 ms</text><text x="46.5" y="186" class="t1 halo" font-size="12" font-weight="500">review, navigation, revisit</text><text x="36.5" y="204" class="t2" font-size="11" text-anchor="end">V1</text><path d="M44.5,193H343.8A4,4 0 0 1 347.8,197V203A4,4 0 0 1 343.8,207H44.5Z" class="f-v1"><title>V1 v1.2.4: 27.5 ms</title></path><text x="353.8" y="204" class="t1 halo" font-size="11.5">27.5 ms</text><text x="36.5" y="221" class="t2" font-size="11" text-anchor="end">V2</text><path d="M44.5,210H159.7A4,4 0 0 1 163.7,214V220A4,4 0 0 1 159.7,224H44.5Z" class="f-v2"><title>V2 2959bbb: 5.60 ms</title></path><text x="169.7" y="221" class="t1 halo" font-size="11.5">5.60 ms</text><text x="46.5" y="249" class="t1 halo" font-size="12" font-weight="500">dashboard, navigation, revisit</text><text x="36.5" y="267" class="t2" font-size="11" text-anchor="end">V1</text><path d="M44.5,256H362.8A4,4 0 0 1 366.8,260V266A4,4 0 0 1 362.8,270H44.5Z" class="f-v1"><title>V1 v1.2.4: 32.3 ms</title></path><text x="372.8" y="267" class="t1 halo" font-size="11.5">32.3 ms</text><text x="36.5" y="284" class="t2" font-size="11" text-anchor="end">V2</text><path d="M44.5,273H116.4A4,4 0 0 1 120.4,277V283A4,4 0 0 1 116.4,287H44.5Z" class="f-v2"><title>V2 2959bbb: 3.85 ms</title></path><text x="126.4" y="284" class="t1 halo" font-size="11.5">3.85 ms</text><text x="46.5" y="312" class="t1 halo" font-size="12" font-weight="500">plans, navigation, revisit</text><text x="36.5" y="330" class="t2" font-size="11" text-anchor="end">V1</text><path d="M44.5,319H363.9A4,4 0 0 1 367.9,323V329A4,4 0 0 1 363.9,333H44.5Z" class="f-v1"><title>V1 v1.2.4: 32.7 ms</title></path><text x="373.9" y="330" class="t1 halo" font-size="11.5">32.7 ms</text><text x="36.5" y="347" class="t2" font-size="11" text-anchor="end">V2</text><path d="M44.5,336H211.4A4,4 0 0 1 215.4,340V346A4,4 0 0 1 211.4,350H44.5Z" class="f-v2"><title>V2 2959bbb: 8.75 ms</title></path><text x="221.4" y="347" class="t1 halo" font-size="11.5">8.75 ms</text><text x="364.2" y="388" class="t2" font-size="11.5" text-anchor="middle">milliseconds (log scale)</text></svg>
